<svg xmlns="http://www.w3.org/2000/svg" xmlns:xlink="http://www.w3.org/1999/xlink" width="26.76" height="34.81" viewBox="0 0 26.76 34.81"><defs><clipPath id="a"><rect width="26.76" height="34.81" fill="#fff"/></clipPath></defs><g clip-path="url(#a)"><path d="M24.287,20.749a2,2,0,0,1,.491.473,2.9,2.9,0,0,0,.335-2.773.348.348,0,0,0-.432.008,10.331,10.331,0,0,1-4.218,1.548.435.435,0,0,0-.052.733,5.507,5.507,0,0,1,2.481,2.777,3.281,3.281,0,0,0,1.395-2.767m-7.23-.6a6.245,6.245,0,0,1-3.194-7.242h0c-.109,2.875,2.241,6,4.8,6.465,1.739.317,4.518-.957,5.549-1.587a1.7,1.7,0,0,0,.864-1.369q.188-.919-1-1.6c-1.374-.783.038-.944.894-.751q.533.1,1.072.16a.375.375,0,0,0,.261-.656q-.154-.222-2.143-1.988.859-1.639-1.108-2.74c1.64-4.887-3.271-6.177-6.84-6.831A11.443,11.443,0,0,1,11.581,0a4.03,4.03,0,0,0,.1,3.238A7.3,7.3,0,0,0,4.69,5.7,9.218,9.218,0,0,1,2.126,7.514a3.318,3.318,0,0,0,1.89,1.105A9.475,9.475,0,0,0,.029,17.1a9.579,9.579,0,0,1,2.337-1.5,13.068,13.068,0,0,0,.626,9.45l1.692-1.76A13.239,13.239,0,0,0,9.641,30.1a6.129,6.129,0,0,1,.96-2.7c1.665,2.261,6.3,3.277,6.432,7.405,2.372-3.041,6.816-5.875,5.042-9.877a10.789,10.789,0,0,0-5.018-4.786m3.378-8.623q-2.153-.127-2.28-1.112c1-.008,1.293-.462,2.188-.359.641.073.837.513.638,1.251l.609.767-1.155-.547m-8.01-2.635a4.293,4.293,0,0,1,1.082-3.917A5.682,5.682,0,0,1,16.929,7.41a4.261,4.261,0,0,0-2.857.112,3.774,3.774,0,0,1,.177-.828A3.246,3.246,0,0,0,12.5,8.769Zm13.211,8.868a2.361,2.361,0,0,1,.5-2.292c.244-.281.624-.584.629-.016a5.708,5.708,0,0,1-.438,2.252c-.195.468-.491.623-.687.056" transform="translate(0)" fill="#fff" fill-rule="evenodd"/></g></svg>